<svg width="155" height="77" viewBox="0 0 155 77" fill="none" xmlns="http://www.w3.org/2000/svg">
<rect x="155" y="6.10352e-05" width="77" height="155" rx="13" transform="rotate(90 155 6.10352e-05)" fill="#EA7052"/>
<mask id="mask0" mask-type="alpha" maskUnits="userSpaceOnUse" x="0" y="0" width="155" height="77">
<rect x="155" y="3.05176e-05" width="77" height="155" rx="13" transform="rotate(90 155 3.05176e-05)" fill="#EA7052"/>
</mask>
<g mask="url(#mask0)">
<path d="M111.174 -12.4052C107.644 1.05555 121.323 9.3552 134.58 9.08613C147.836 8.81706 156.353 -5.96561 147.575 -16.2642C138.457 -26.9067 114.067 -23.5313 111.174 -12.4052Z" fill="#68BC98"/>
</g>
<path d="M43.5101 51.4561V60.0001H42.1421V54.6961L39.8741 60.0001H38.8541L36.5741 54.7561V60.0001H35.2061V51.4561H36.4301L39.3701 58.1401L42.2861 51.4561H43.5101ZM53.0534 57.9961L48.8774 57.9961L48.0134 60.0001H46.4534L50.3174 51.4561H51.5774L55.4534 60.0001H53.9054L53.0534 57.9961ZM52.5374 56.7961L50.9654 53.1361L49.3934 56.7961L52.5374 56.7961ZM59.3267 52.7281H56.5427V51.4561H63.6827V52.7281H60.8867V60.0001H59.3267V52.7281ZM74.1924 51.4561V60.0001H72.6564V56.2921H68.2764V60.0001H66.7524V51.4561H68.2764V55.0321H72.6564V51.4561H74.1924ZM78.0453 51.4561H83.7573V52.6801H79.5573V55.0441H83.5053V56.2681H79.5573V58.7761H83.7573V60.0001H78.0453V51.4561ZM95.5101 51.4561V60.0001H94.1421V54.6961L91.8741 60.0001H90.8541L88.5741 54.7561V60.0001H87.2061V51.4561H88.4301L91.3701 58.1401L94.2861 51.4561H95.5101ZM105.053 57.9961H100.877L100.013 60.0001H98.4534L102.317 51.4561H103.577L107.453 60.0001H105.905L105.053 57.9961ZM104.537 56.7961L102.965 53.1361L101.393 56.7961H104.537ZM111.327 52.7281H108.543V51.4561H115.683V52.7281H112.887V60.0001H111.327V52.7281ZM118.752 51.4561H120.3V60.0001H118.752V51.4561ZM128.027 60.1081C127.187 60.1081 126.451 59.9281 125.819 59.5681C125.195 59.2081 124.715 58.7001 124.379 58.0441C124.043 57.3801 123.875 56.6041 123.875 55.7161C123.875 54.8361 124.043 54.0681 124.379 53.4121C124.715 52.7481 125.195 52.2401 125.819 51.8881C126.451 51.5281 127.187 51.3481 128.027 51.3481C128.603 51.3481 129.143 51.4401 129.647 51.6241C130.159 51.8001 130.583 52.0481 130.919 52.3681L130.415 53.4961C130.031 53.1841 129.647 52.9601 129.263 52.8241C128.887 52.6801 128.483 52.6081 128.051 52.6081C127.227 52.6081 126.587 52.8761 126.131 53.4121C125.683 53.9481 125.459 54.7161 125.459 55.7161C125.459 56.7241 125.683 57.5001 126.131 58.0441C126.579 58.5801 127.219 58.8481 128.051 58.8481C128.483 58.8481 128.887 58.7801 129.263 58.6441C129.647 58.5001 130.031 58.2721 130.415 57.9601L130.919 59.0881C130.583 59.4081 130.159 59.6601 129.647 59.8441C129.143 60.0201 128.603 60.1081 128.027 60.1081ZM137.094 60.1081C136.438 60.1081 135.822 60.0201 135.246 59.8441C134.678 59.6681 134.194 59.4161 133.794 59.0881L134.322 57.9601C134.738 58.2721 135.17 58.5041 135.618 58.6561C136.074 58.8001 136.57 58.8721 137.106 58.8721C137.698 58.8721 138.154 58.7681 138.474 58.5601C138.802 58.3521 138.966 58.0601 138.966 57.6841C138.966 57.3641 138.814 57.1201 138.51 56.9521C138.214 56.7761 137.722 56.6121 137.034 56.4601C135.962 56.2281 135.182 55.9281 134.694 55.5601C134.206 55.1921 133.962 54.6561 133.962 53.9521C133.962 53.4481 134.098 53.0001 134.37 52.6081C134.642 52.2161 135.026 51.9081 135.522 51.6841C136.026 51.4601 136.606 51.3481 137.262 51.3481C137.862 51.3481 138.43 51.4401 138.966 51.6241C139.51 51.8001 139.954 52.0481 140.298 52.3681L139.782 53.4961C139.022 52.8881 138.182 52.5841 137.262 52.5841C136.71 52.5841 136.274 52.7001 135.954 52.9321C135.634 53.1561 135.474 53.4641 135.474 53.8561C135.474 54.1921 135.614 54.4481 135.894 54.6241C136.182 54.8001 136.67 54.9641 137.358 55.1161C138.07 55.2841 138.65 55.4681 139.098 55.6681C139.546 55.8601 139.89 56.1121 140.13 56.4241C140.37 56.7281 140.49 57.1121 140.49 57.5761C140.49 58.0881 140.354 58.5361 140.082 58.9201C139.81 59.2961 139.418 59.5881 138.906 59.7961C138.394 60.0041 137.79 60.1081 137.094 60.1081Z" fill="white"/>
<g opacity="0.6">
<path d="M39.0949 15.7441H28.8094L15.2938 35.2384L13.1666 27.2288" stroke="#FCFBF9" stroke-width="1.5" stroke-miterlimit="10" stroke-linejoin="round"/>
<path d="M27.2947 22.8608L37.055 36.07" stroke="#FCFBF9" stroke-width="1.5" stroke-miterlimit="10" stroke-linejoin="round"/>
<path d="M37.055 22.8608L27.2947 36.07" stroke="#FCFBF9" stroke-width="1.5" stroke-miterlimit="10" stroke-linejoin="round"/>
<path d="M13 15L16.2739 19.4293" stroke="#FCFBF9" stroke-width="1.5" stroke-miterlimit="10" stroke-linejoin="round"/>
<path d="M19.6177 15L13 23.955" stroke="#FCFBF9" stroke-width="1.5" stroke-miterlimit="10" stroke-linejoin="round"/>
</g>
</svg>
